# xmcd
#
# Track frame offsets:
#	150
#	14069
#	28248
#	45722
#	66190
#	82802
#	95508
#	106943
#	127124
#	144152
#
# Disc length: 2189 seconds
# Revision: 0
# Processed by: cddbd v1.5.2PL0 Copyright (c) Steve Scherf et al.
# Submitted via: dBpowerAMP V12.0
#
DISCID=84088b0a
DTITLE=Morningside Fats - Speak no Evil
DYEAR=2013
DGENRE=Blues
TTITLE0=First Impression
TTITLE1=The Things You do
TTITLE2=Speak no Evil
TTITLE3=West End Mary
TTITLE4=It's Not About You
TTITLE5=Crown of Thorns
TTITLE6=Eating Watermelons
TTITLE7=Come on Over my House
TTITLE8=Beautiful World
TTITLE9=Waiting For Megs
EXTD=
EXTT0=
EXTT1=
EXTT2=
EXTT3=
EXTT4=
EXTT5=
EXTT6=
EXTT7=
EXTT8=
EXTT9=
PLAYORDER=
